<svg height="480pt" viewBox="0 -16 480 480" width="480pt" xmlns="http://www.w3.org/2000/svg"><path d="m72 56c0 4.417969-3.582031 8-8 8s-8-3.582031-8-8 3.582031-8 8-8 8 3.582031 8 8zm0 0"/><path d="m424 56c0 4.417969-3.582031 8-8 8s-8-3.582031-8-8 3.582031-8 8-8 8 3.582031 8 8zm0 0"/><path d="m176 48v70.113281l12.945312 25.886719h115.054688v-65.472656c-8.261719 3.078125-17.554688 1.21875-24-4.800782-9.042969 8.320313-22.957031 8.320313-32 0-5.347656 5.039063-12.785156 7.207032-20 5.832032 1 .585937 2.015625 1.121094 2.984375 1.769531 15.664063 10.355469 25.066406 27.894531 25.015625 46.671875h-16c.015625-13.417969-6.722656-25.945312-17.929688-33.328125-6.523437-4.378906-14.210937-6.703125-22.070312-6.671875-4.417969 0-8-3.582031-8-8v-32c.019531-2.085938-.8125-4.09375-2.304688-5.550781-1.476562-1.570313-3.539062-2.457031-5.695312-2.449219-4.417969 0-8 3.582031-8 8zm0 0"/><path d="m192 160h112v48h-112zm0 0"/><path d="m192 25.457031c9.570312 3.367188 15.980469 12.398438 16 22.542969v-48h-8c-4.417969 0-8 3.582031-8 8zm0 0"/><path d="m200 224h96v176h-96zm0 0"/><path d="m215.449219 74.214844c.605469.167968 1.199219.378906 1.796875.578125-.421875-.335938-.847656-.671875-1.246094-1.03125-.175781.160156-.367188.292969-.550781.453125zm0 0"/><path d="m232 64c4.417969 0 8-3.582031 8-8v-56h-16v56c0 4.417969 3.582031 8 8 8zm0 0"/><path d="m328 424c0-4.417969-3.582031-8-8-8h-144c-4.417969 0-8 3.582031-8 8v24h160zm0 0"/><path d="m296 0h-8v56c0 4.417969 3.582031 8 8 8s8-3.582031 8-8v-48c0-4.417969-3.582031-8-8-8zm0 0"/><path d="m264 64c4.417969 0 8-3.582031 8-8v-56h-16v56c0 4.417969 3.582031 8 8 8zm0 0"/><path d="m86.558594 48c1.921875 5.160156 1.921875 10.839844 0 16h73.441406v-16zm306.882812 0h-73.441406v16h73.441406c-1.921875-5.160156-1.921875-10.839844 0-16zm45.117188 0c1.921875 5.160156 1.921875 10.839844 0 16h25.441406v-16zm40.960937 181.359375-53.121093-151.757813c-6.5625 3.199219-14.234376 3.199219-20.796876 0l-53.121093 151.757813c-.3125.84375-.476563 1.738281-.480469 2.640625v32c0 22.078125 28.71875 40 64 40s64-17.921875 64-40v-32c-.003906-.902344-.167969-1.796875-.480469-2.640625zm-15.519531 10.640625h-96v-6.640625l48-137.121094 48 137.121094zm-336.480469-10.640625-53.121093-151.757813c-6.5625 3.199219-14.234376 3.199219-20.796876 0l-53.121093 151.757813c-.3125.84375-.47656275 1.738281-.480469 2.640625v32c0 22.078125 28.71875 40 64 40s64-17.921875 64-40v-32c-.003906-.902344-.167969-1.796875-.480469-2.640625zm-15.519531 10.640625h-96v-6.640625l48-137.121094 48 137.121094zm-70.558594-192h-25.441406v16h25.441406c-1.921875-5.160156-1.921875-10.839844 0-16zm0 0"/><path d="m192 160h112v24h-112zm0 0"/></svg>