<svg height="512pt" viewBox="0 -11 512 511" width="512pt" xmlns="http://www.w3.org/2000/svg" fill="#873A7F"><path d="m367.863281 120.53125c-4.421875 0-8-3.582031-8-8v-30.933594c0-4.417968 3.578125-8 8-8 4.425781 0 8 3.582032 8 8v30.933594c0 4.417969-3.574219 8-8 8zm0 0"/><path d="m479.863281 120.53125c-4.421875 0-8-3.582031-8-8v-36c0-4.414062 3.578125-8 8-8 4.425781 0 8 3.585938 8 8v36c0 4.417969-3.574219 8-8 8zm0 0"/><path d="m479.863281 84.53125c-4.421875 0-8-3.582031-8-8 0-28.671875-23.328125-52-52.007812-52-28.671875 0-51.992188 23.328125-51.992188 52 0 4.417969-3.574219 8-8 8-4.421875 0-8-3.582031-8-8 0-37.496094 30.503907-68 67.992188-68 37.503906 0 68.007812 30.503906 68.007812 68 0 4.417969-3.574219 8-8 8zm0 0"/><path d="m479.871094 95.5c-2.40625 0-4.78125-1.078125-6.359375-3.136719-15.449219-20.175781-19.648438-18.496093-35.3125-12.304687-15.023438 5.953125-37.726563 14.953125-79.582031 8.335937-4.359376-.6875-7.34375-4.78125-6.648438-9.152343.6875-4.359376 4.792969-7.328126 9.152344-6.652344 37.542968 5.925781 56.984375-1.785156 71.191406-7.410156 19.273438-7.640626 32.191406-10.902344 53.902344 17.449218 2.6875 3.503906 2.023437 8.527344-1.488282 11.214844-1.445312 1.121094-3.160156 1.65625-4.855468 1.65625zm0 0"/><path d="m447.855469 76.347656c-1.175781 0-2.382813-.261718-3.511719-.824218-3.96875-1.945313-5.601562-6.742188-3.65625-10.703126l16-32.578124c1.945312-3.964844 6.726562-5.613282 10.703125-3.652344 3.96875 1.941406 5.601563 6.742187 3.65625 10.703125l-16 32.574219c-1.390625 2.839843-4.230469 4.480468-7.191406 4.480468zm0 0"/><path d="m351.863281 224.5c-4.421875 0-8-3.585938-8-8 0-17.648438 14.351563-32 32-32 4.425781 0 8 3.585938 8 8s-3.574219 8-8 8c-8.824219 0-16 7.175781-16 16 0 4.414062-3.574219 8-8 8zm0 0"/><path d="m399.863281 200.546875h-24c-4.421875 0-8-3.582031-8-8 0-4.414063 3.578125-8 8-8h24c4.425781 0 8 3.585937 8 8 0 4.417969-3.574219 8-8 8zm0 0"/><path d="m351.863281 240.53125c-4.421875 0-8-3.582031-8-8v-16.03125c0-4.414062 3.578125-8 8-8 4.425781 0 8 3.585938 8 8v16.03125c0 4.417969-3.574219 8-8 8zm0 0"/><path d="m495.863281 224.5c-4.421875 0-8-3.585938-8-8 0-8.824219-7.175781-16-16-16-4.421875 0-8-3.585938-8-8s3.578125-8 8-8c17.648438 0 32 14.351562 32 32 0 4.414062-3.574219 8-8 8zm0 0"/><path d="m471.863281 200.546875h-24c-4.421875 0-8-3.582031-8-8 0-4.414063 3.578125-8 8-8h24c4.425781 0 8 3.585937 8 8 0 4.417969-3.574219 8-8 8zm0 0"/><path d="m495.863281 240.53125c-4.421875 0-8-3.582031-8-8v-16.03125c0-4.414062 3.578125-8 8-8 4.425781 0 8 3.585938 8 8v16.03125c0 4.417969-3.574219 8-8 8zm0 0"/><path d="m399.863281 200.546875c-4.421875 0-8-3.582031-8-8v-29.472656c0-4.414063 3.578125-8 8-8 4.425781 0 8 3.585937 8 8v29.472656c0 4.417969-3.574219 8-8 8zm0 0"/><path d="m447.863281 200.5c-4.421875 0-8-3.585938-8-8v-29.425781c0-4.414063 3.578125-8 8-8 4.425781 0 8 3.585937 8 8v29.425781c0 4.414062-3.574219 8-8 8zm0 0"/><path d="m423.863281 176.46875c-35.289062 0-64-28.695312-64-63.96875 0-4.414062 3.578125-8 8-8 4.425781 0 8 3.585938 8 8 0 26.449219 21.527344 47.96875 48 47.96875 26.472657 0 48-21.519531 48-47.96875 0-4.414062 3.578125-8 8-8 4.425781 0 8 3.585938 8 8 0 35.273438-28.703125 63.96875-64 63.96875zm0 0"/><path d="m407.871094 208.5c-2.933594 0-5.757813-1.617188-7.167969-4.425781-1.976563-3.949219-.375-8.757813 3.578125-10.734375l16-8c3.941406-1.976563 8.75-.375 10.734375 3.574218 1.976563 3.953126.375 8.761719-3.574219 10.738282l-16 8c-1.144531.582031-2.363281.847656-3.570312.847656zm0 0"/><path d="m439.863281 208.5c-2.046875 0-4.09375-.785156-5.65625-2.34375-3.128906-3.128906-3.128906-8.183594 0-11.3125l8-8c3.128907-3.128906 8.183594-3.128906 11.3125 0 3.128907 3.128906 3.128907 8.183594 0 11.3125l-8 8c-1.558593 1.566406-3.609375 2.34375-5.65625 2.34375zm0 0"/><path d="m407.863281 208.5c-2.046875 0-4.09375-.785156-5.65625-2.34375l-8-8c-3.128906-3.128906-3.128906-8.183594 0-11.3125 3.128907-3.128906 8.183594-3.128906 11.3125 0l8 8c3.128907 3.128906 3.128907 8.183594 0 11.3125-1.558593 1.566406-3.609375 2.34375-5.65625 2.34375zm0 0"/><path d="m439.855469 208.5c-1.199219 0-2.421875-.273438-3.566407-.839844l-16-8c-3.953124-1.976562-5.554687-6.785156-3.578124-10.734375 1.984374-3.953125 6.785156-5.554687 10.738281-3.578125l16 8c3.949219 1.976563 5.550781 6.785156 3.574219 10.738282-1.40625 2.796874-4.222657 4.414062-7.167969 4.414062zm0 0"/><path d="m199.871094 120.53125c-4.421875 0-8-3.582031-8-8v-40.03125c0-4.414062 3.578125-8 8-8 4.425781 0 8 3.585938 8 8v40.03125c0 4.417969-3.574219 8-8 8zm0 0"/><path d="m311.871094 120.53125c-4.421875 0-8-3.582031-8-8v-40.03125c0-4.414062 3.578125-8 8-8 4.425781 0 8 3.585938 8 8v40.03125c0 4.417969-3.574219 8-8 8zm0 0"/><path d="m183.871094 224.5c-4.421875 0-8-3.585938-8-8 0-17.648438 14.351562-32 32-32 4.425781 0 8 3.585938 8 8s-3.574219 8-8 8c-8.824219 0-16 7.175781-16 16 0 4.414062-3.574219 8-8 8zm0 0"/><path d="m231.871094 200.546875h-24c-4.421875 0-8-3.582031-8-8 0-4.414063 3.578125-8 8-8h24c4.425781 0 8 3.585937 8 8 0 4.417969-3.574219 8-8 8zm0 0"/><path d="m183.871094 240.53125c-4.421875 0-8-3.582031-8-8v-16.03125c0-4.414062 3.578125-8 8-8 4.425781 0 8 3.585938 8 8v16.03125c0 4.417969-3.574219 8-8 8zm0 0"/><path d="m327.871094 224.5c-4.421875 0-8-3.585938-8-8 0-8.824219-7.175782-16-16-16-4.421875 0-8-3.585938-8-8s3.578125-8 8-8c17.648437 0 32 14.351562 32 32 0 4.414062-3.574219 8-8 8zm0 0"/><path d="m303.871094 200.546875h-24c-4.421875 0-8-3.582031-8-8 0-4.414063 3.578125-8 8-8h24c4.425781 0 8 3.585937 8 8 0 4.417969-3.574219 8-8 8zm0 0"/><path d="m327.871094 240.53125c-4.421875 0-8-3.582031-8-8v-16.03125c0-4.414062 3.578125-8 8-8 4.425781 0 8 3.585938 8 8v16.03125c0 4.417969-3.574219 8-8 8zm0 0"/><path d="m231.871094 200.546875c-4.421875 0-8-3.582031-8-8v-29.472656c0-4.414063 3.578125-8 8-8 4.425781 0 8 3.585937 8 8v29.472656c0 4.417969-3.574219 8-8 8zm0 0"/><path d="m279.871094 200.5c-4.421875 0-8-3.585938-8-8v-29.425781c0-4.414063 3.578125-8 8-8 4.425781 0 8 3.585937 8 8v29.425781c0 4.414062-3.574219 8-8 8zm0 0"/><path d="m255.871094 176.46875c-35.285156 0-64-28.695312-64-63.96875 0-4.414062 3.578125-8 8-8 4.425781 0 8 3.585938 8 8 0 26.449219 21.527344 47.96875 48 47.96875s48-21.519531 48-47.96875c0-4.414062 3.578125-8 8-8 4.425781 0 8 3.585938 8 8 0 35.273438-28.703125 63.96875-64 63.96875zm0 0"/><path d="m311.871094 80.5c-4.421875 0-8-3.585938-8-8 0-26.449219-21.527344-47.96875-48-47.96875s-48 21.519531-48 47.96875c0 4.414062-3.574219 8-8 8-4.421875 0-8-3.585938-8-8 0-35.273438 28.714844-63.96875 64-63.96875 35.289062 0 64 28.695312 64 63.96875 0 4.414062-3.574219 8-8 8zm0 0"/><path d="m239.878906 208.5c-2.933594 0-5.757812-1.617188-7.167968-4.425781-1.976563-3.949219-.375-8.757813 3.578124-10.734375l16-8c3.941407-1.976563 8.75-.375 10.734376 3.574218 1.976562 3.953126.375 8.761719-3.574219 10.738282l-16 8c-1.144531.582031-2.359375.847656-3.570313.847656zm0 0"/><path d="m271.871094 208.5c-2.046875 0-4.09375-.785156-5.65625-2.34375-3.125-3.128906-3.125-8.183594 0-11.3125l8-8c3.128906-3.128906 8.183594-3.128906 11.3125 0s3.128906 8.183594 0 11.3125l-8 8c-1.558594 1.566406-3.605469 2.34375-5.65625 2.34375zm0 0"/><path d="m239.871094 208.5c-2.046875 0-4.09375-.785156-5.65625-2.34375l-8-8c-3.125-3.128906-3.125-8.183594 0-11.3125 3.128906-3.128906 8.183594-3.128906 11.3125 0l8 8c3.128906 3.128906 3.128906 8.183594 0 11.3125-1.558594 1.566406-3.605469 2.34375-5.65625 2.34375zm0 0"/><path d="m271.863281 208.5c-1.199219 0-2.421875-.273438-3.566406-.839844l-16-8c-3.953125-1.976562-5.554687-6.785156-3.578125-10.734375 1.984375-3.953125 6.792969-5.554687 10.738281-3.578125l16 8c3.949219 1.976563 5.550781 6.785156 3.574219 10.738282-1.40625 2.796874-4.222656 4.414062-7.167969 4.414062zm0 0"/><path d="m31.878906 120.53125c-4.421875 0-8-3.582031-8-8v-64.03125c0-4.414062 3.578125-8 8-8 4.425782 0 8 3.585938 8 8v64.03125c0 4.417969-3.574218 8-8 8zm0 0"/><path d="m143.878906 120.53125c-4.421875 0-8-3.582031-8-8v-2.34375c0-4.414062 3.578125-8 8-8 4.425782 0 8 3.585938 8 8v2.34375c0 4.417969-3.574218 8-8 8zm0 0"/><path d="m15.878906 224.5c-4.421875 0-8-3.585938-8-8 0-17.648438 14.351563-32 32-32 4.425782 0 8 3.585938 8 8s-3.574218 8-8 8c-8.824218 0-16 7.175781-16 16 0 4.414062-3.574218 8-8 8zm0 0"/><path d="m63.878906 200.546875h-24c-4.421875 0-8-3.582031-8-8 0-4.414063 3.578125-8 8-8h24c4.425782 0 8 3.585937 8 8 0 4.417969-3.574218 8-8 8zm0 0"/><path d="m15.878906 240.53125c-4.421875 0-8-3.582031-8-8v-16.03125c0-4.414062 3.578125-8 8-8 4.425782 0 8 3.585938 8 8v16.03125c0 4.417969-3.574218 8-8 8zm0 0"/><path d="m159.878906 224.5c-4.421875 0-8-3.585938-8-8 0-8.824219-7.175781-16-16-16-4.421875 0-8-3.585938-8-8s3.578125-8 8-8c17.648438 0 32 14.351562 32 32 0 4.414062-3.574218 8-8 8zm0 0"/><path d="m135.878906 200.546875h-24c-4.421875 0-8-3.582031-8-8 0-4.414063 3.578125-8 8-8h24c4.425782 0 8 3.585937 8 8 0 4.417969-3.574218 8-8 8zm0 0"/><path d="m159.878906 240.53125c-4.421875 0-8-3.582031-8-8v-16.03125c0-4.414062 3.578125-8 8-8 4.425782 0 8 3.585938 8 8v16.03125c0 4.417969-3.574218 8-8 8zm0 0"/><path d="m63.878906 200.546875c-4.421875 0-8-3.582031-8-8v-29.472656c0-4.414063 3.578125-8 8-8 4.425782 0 8 3.585937 8 8v29.472656c0 4.417969-3.574218 8-8 8zm0 0"/><path d="m111.878906 200.5c-4.421875 0-8-3.585938-8-8v-29.425781c0-4.414063 3.578125-8 8-8 4.425782 0 8 3.585937 8 8v29.425781c0 4.414062-3.574218 8-8 8zm0 0"/><path d="m87.878906 176.46875c-35.285156 0-64-28.695312-64-63.96875 0-4.414062 3.578125-8 8-8 4.425782 0 8 3.585938 8 8 0 26.449219 21.527344 47.96875 48 47.96875s48-21.519531 48-47.96875c0-4.414062 3.578125-8 8-8 4.425782 0 8 3.585938 8 8 0 35.273438-28.710937 63.96875-64 63.96875zm0 0"/><path d="m87.871094 216.5c-1.519532 0-3.0625-.433594-4.429688-1.34375l-24-16c-3.679687-2.449219-4.671875-7.417969-2.21875-11.097656 2.449219-3.679688 7.402344-4.671875 11.097656-2.214844l24 16c3.679688 2.449219 4.671876 7.417969 2.214844 11.097656-1.535156 2.3125-4.070312 3.558594-6.664062 3.558594zm0 0"/><path d="m87.886719 216.5c-2.582031 0-5.125-1.246094-6.664063-3.558594-2.453125-3.671875-1.460937-8.648437 2.21875-11.097656l24-16c3.679688-2.457031 8.636719-1.464844 11.09375 2.214844 2.457032 3.671875 1.464844 8.648437-2.214844 11.097656l-24 16c-1.367187.910156-2.90625 1.34375-4.433593 1.34375zm0 0"/><path d="m159.878906 80.5c-4.421875 0-8-3.585938-8-8 0-30.878906-25.125-56-56-56-14.253906 0-26.894531 7.742188-34.992187 14.238281-3.445313 2.785157-8.480469 2.210938-11.246094-1.230469-2.769531-3.441406-2.207031-8.480468 1.230469-11.246093 14.480468-11.625 30.039062-17.761719 45.007812-17.761719 39.707032 0 72 32.304688 72 72 0 4.414062-3.574218 8-8 8zm0 0"/><path d="m159.878906 160.5c-4.421875 0-8-3.585938-8-8 0-30.878906-25.125-56-56-56-4.421875 0-8-3.585938-8-8s3.578125-8 8-8c39.707032 0 72 32.304688 72 72 0 4.414062-3.574218 8-8 8zm0 0"/><path d="m31.878906 96.5c-4.421875 0-8-3.585938-8-8s3.578125-8 8-8c8.824219 0 16-7.175781 16-16 0-4.414062 3.578125-8 8-8 4.425782 0 8 3.585938 8 8 0 17.648438-14.351562 32-32 32zm0 0"/><path d="m31.878906 56.5c-4.421875 0-8-3.585938-8-8 0-17.648438 14.351563-32 32-32 4.425782 0 8 3.585938 8 8s-3.574218 8-8 8c-8.824218 0-16 7.175781-16 16 0 4.414062-3.574218 8-8 8zm0 0"/><path d="m79.878906 96.5c-17.648437 0-32-14.351562-32-32 0-4.414062 3.578125-8 8-8 4.425782 0 8 3.585938 8 8 0 8.824219 7.175782 16 16 16 4.425782 0 8 3.585938 8 8s-3.574218 8-8 8zm0 0"/><path d="m55.878906 72.5c-4.421875 0-8-3.585938-8-8v-40c0-4.414062 3.578125-8 8-8 4.425782 0 8 3.585938 8 8v40c0 4.414062-3.574218 8-8 8zm0 0"/><path d="m159.878906 160.5c-4.421875 0-8-3.585938-8-8v-80c0-4.414062 3.578125-8 8-8 4.425782 0 8 3.585938 8 8v80c0 4.414062-3.574218 8-8 8zm0 0"/><path d="m95.878906 96.5h-16c-4.421875 0-8-3.585938-8-8s3.578125-8 8-8h16c4.425782 0 8 3.585938 8 8s-3.574218 8-8 8zm0 0"/><path d="m255.367188 88.660156c-23.207032 0-42.054688-8.574218-42.839844-8.945312-4.007813-1.847656-5.75-6.582032-3.910156-10.597656 1.839843-4.015626 6.589843-5.769532 10.597656-3.9375.167968.074218 16.585937 7.472656 36.160156 7.472656 19.714844 0 37.167969-7.398438 37.34375-7.472656 4.050781-1.75 8.761719.144531 10.503906 4.183593 1.746094 4.058594-.117187 8.753907-4.167968 10.503907-.832032.367187-20.558594 8.792968-43.6875 8.792968zm0 0"/><path d="m311.871094 96.53125c-2.03125 0-4.070313-.765625-5.632813-2.320312l-16-15.839844c-3.132812-3.109375-3.167969-8.167969-.054687-11.3125 3.121094-3.132813 8.167968-3.167969 11.320312-.054688l16 15.839844c3.136719 3.113281 3.167969 8.167969.054688 11.3125-1.566406 1.582031-3.621094 2.375-5.6875 2.375zm0 0"/><path d="m199.871094 96.691406c-2.039063 0-4.085938-.777344-5.640625-2.328125-3.132813-3.121093-3.152344-8.183593-.03125-11.320312l16-16.078125c3.121093-3.128906 8.191406-3.136719 11.3125-.023438 3.136719 3.117188 3.152343 8.183594.03125 11.320313l-16 16.078125c-1.558594 1.566406-3.613281 2.351562-5.671875 2.351562zm0 0"/><path d="m504 240.613281h-496c-4.425781 0-8-3.585937-8-8 0-4.417969 3.574219-8 8-8h496c4.425781 0 8 3.582031 8 8 0 4.414063-3.574219 8-8 8zm0 0"/><path d="m159.878906 264.613281h-151.878906c-4.425781 0-8-3.578125-8-8 0-4.417969 3.574219-8 8-8h151.878906c4.425782 0 8 3.582031 8 8 0 4.421875-3.574218 8-8 8zm0 0"/><path d="m183.992188 456.667969c-4.425782 0-8-3.574219-8-8v-192.054688c0-4.417969 3.574218-8 8-8 4.421874 0 8 3.582031 8 8v192.054688c0 4.417969-3.578126 8-8 8zm0 0"/><path d="m159.878906 456.667969c-4.421875 0-8-3.574219-8-8v-192.054688c0-4.417969 3.578125-8 8-8 4.425782 0 8 3.582031 8 8v192.054688c0 4.417969-3.574218 8-8 8zm0 0"/><path d="m351.984375 456.667969c-4.425781 0-8-3.574219-8-8v-192.054688c0-4.417969 3.574219-8 8-8 4.421875 0 8 3.582031 8 8v192.054688c0 4.417969-3.578125 8-8 8zm0 0"/><path d="m327.871094 456.667969c-4.421875 0-8-3.574219-8-8v-192.054688c0-4.417969 3.578125-8 8-8 4.425781 0 8 3.582031 8 8v192.054688c0 4.417969-3.574219 8-8 8zm0 0"/><path d="m327.871094 264.613281h-143.878906c-4.425782 0-8-3.578125-8-8 0-4.417969 3.574218-8 8-8h143.878906c4.425781 0 8 3.582031 8 8 0 4.421875-3.574219 8-8 8zm0 0"/><path d="m504 264.613281h-152.015625c-4.425781 0-8-3.578125-8-8 0-4.417969 3.574219-8 8-8h152.015625c4.425781 0 8 3.582031 8 8 0 4.421875-3.574219 8-8 8zm0 0"/><path d="m303.992188 304.621094c-13.230469 0-24-10.769532-24-24 0-4.425782 3.574218-8 8-8 4.421874 0 8 3.574218 8 8 0 4.414062 3.582031 8 8 8 4.421874 0 8 3.574218 8 8 0 4.421875-3.578126 8-8 8zm0 0"/><path d="m303.992188 416.636719c-4.425782 0-8-3.578125-8-8v-112.015625c0-4.425782 3.574218-8 8-8 4.421874 0 8 3.574218 8 8v112.015625c0 4.421875-3.578126 8-8 8zm0 0"/><path d="m208 304.621094c-4.425781 0-8-3.578125-8-8 0-4.425782 3.574219-8 8-8 4.414062 0 8-3.585938 8-8 0-4.425782 3.574219-8 8-8s8 3.574218 8 8c0 13.230468-10.769531 24-24 24zm0 0"/><path d="m208 416.636719c-4.425781 0-8-3.578125-8-8v-112.015625c0-4.425782 3.574219-8 8-8s8 3.574218 8 8v112.015625c0 4.421875-3.574219 8-8 8zm0 0"/><path d="m287.992188 288.621094h-63.992188c-4.425781 0-8-3.578125-8-8 0-4.425782 3.574219-8 8-8h63.992188c4.421874 0 8 3.574218 8 8 0 4.421875-3.578126 8-8 8zm0 0"/><path d="m135.871094 304.621094c-13.230469 0-24-10.769532-24-24 0-4.425782 3.578125-8 8-8 4.425781 0 8 3.574218 8 8 0 4.414062 3.585937 8 8 8 4.425781 0 8 3.574218 8 8 0 4.421875-3.574219 8-8 8zm0 0"/><path d="m135.871094 416.636719c-4.421875 0-8-3.578125-8-8v-112.015625c0-4.425782 3.578125-8 8-8 4.425781 0 8 3.574218 8 8v112.015625c0 4.421875-3.574219 8-8 8zm0 0"/><path d="m39.878906 304.621094c-4.421875 0-8-3.578125-8-8 0-4.425782 3.578125-8 8-8 4.417969 0 8-3.585938 8-8 0-4.425782 3.578125-8 8-8 4.425782 0 8 3.574218 8 8 0 13.230468-10.757812 24-24 24zm0 0"/><path d="m39.878906 416.636719c-4.421875 0-8-3.578125-8-8v-112.015625c0-4.425782 3.578125-8 8-8 4.425782 0 8 3.574218 8 8v112.015625c0 4.421875-3.574218 8-8 8zm0 0"/><path d="m119.871094 288.621094h-63.992188c-4.421875 0-8-3.578125-8-8 0-4.425782 3.578125-8 8-8h63.992188c4.425781 0 8 3.574218 8 8 0 4.421875-3.574219 8-8 8zm0 0"/><path d="m472 304.621094c-13.230469 0-24-10.769532-24-24 0-4.425782 3.574219-8 8-8s8 3.574218 8 8c0 4.414062 3.585938 8 8 8 4.425781 0 8 3.574218 8 8 0 4.421875-3.574219 8-8 8zm0 0"/><path d="m472 416.636719c-4.425781 0-8-3.578125-8-8v-112.015625c0-4.425782 3.574219-8 8-8s8 3.574218 8 8v112.015625c0 4.421875-3.574219 8-8 8zm0 0"/><path d="m376.007812 304.621094c-4.421874 0-8-3.578125-8-8 0-4.425782 3.578126-8 8-8 4.417969 0 8-3.585938 8-8 0-4.425782 3.578126-8 8-8 4.425782 0 8 3.574218 8 8 0 13.230468-10.769531 24-24 24zm0 0"/><path d="m376.007812 416.636719c-4.421874 0-8-3.578125-8-8v-112.015625c0-4.425782 3.578126-8 8-8 4.425782 0 8 3.574218 8 8v112.015625c0 4.421875-3.574218 8-8 8zm0 0"/><path d="m456 288.621094h-63.992188c-4.421874 0-8-3.578125-8-8 0-4.425782 3.578126-8 8-8h63.992188c4.425781 0 8 3.574218 8 8 0 4.421875-3.574219 8-8 8zm0 0"/><path d="m223.886719 432.628906c-4.421875 0-8-3.578125-8-8 0-4.417968-3.582031-8-8-8-4.421875 0-8-3.578125-8-8 0-4.425781 3.578125-8 8-8 13.234375 0 24 10.765625 24 24 0 4.421875-3.574219 8-8 8zm0 0"/><path d="m287.878906 432.628906c-4.421875 0-8-3.578125-8-8 0-13.234375 10.769532-24 24-24 4.425782 0 8 3.574219 8 8 0 4.421875-3.574218 8-8 8-4.414062 0-8 3.582032-8 8 0 4.421875-3.574218 8-8 8zm0 0"/><path d="m287.878906 432.628906h-63.992187c-4.421875 0-8-3.578125-8-8 0-4.425781 3.578125-8 8-8h63.992187c4.425782 0 8 3.574219 8 8 0 4.421875-3.574218 8-8 8zm0 0"/><path d="m392.007812 432.628906c-4.421874 0-8-3.578125-8-8 0-4.417968-3.582031-8-8-8-4.421874 0-8-3.578125-8-8 0-4.425781 3.578126-8 8-8 13.230469 0 24 10.765625 24 24 0 4.421875-3.574218 8-8 8zm0 0"/><path d="m456 432.628906c-4.425781 0-8-3.578125-8-8 0-13.234375 10.769531-24 24-24 4.425781 0 8 3.574219 8 8 0 4.421875-3.574219 8-8 8-4.414062 0-8 3.582032-8 8 0 4.421875-3.574219 8-8 8zm0 0"/><path d="m456 432.628906h-63.992188c-4.421874 0-8-3.578125-8-8 0-4.425781 3.578126-8 8-8h63.992188c4.425781 0 8 3.574219 8 8 0 4.421875-3.574219 8-8 8zm0 0"/><path d="m55.878906 432.628906c-4.421875 0-8-3.578125-8-8 0-4.417968-3.582031-8-8-8-4.421875 0-8-3.578125-8-8 0-4.425781 3.578125-8 8-8 13.234375 0 24 10.765625 24 24 0 4.421875-3.574218 8-8 8zm0 0"/><path d="m119.871094 432.628906c-4.421875 0-8-3.578125-8-8 0-13.234375 10.769531-24 24-24 4.425781 0 8 3.574219 8 8 0 4.421875-3.574219 8-8 8-4.414063 0-8 3.582032-8 8 0 4.421875-3.574219 8-8 8zm0 0"/><path d="m119.871094 432.628906h-63.992188c-4.421875 0-8-3.578125-8-8 0-4.425781 3.578125-8 8-8h63.992188c4.425781 0 8 3.574219 8 8 0 4.421875-3.574219 8-8 8zm0 0"/><path d="m495.992188 456.667969c-4.425782 0-8-3.574219-8-8v-192.054688c0-4.417969 3.574218-8 8-8 4.421874 0 8 3.582031 8 8v192.054688c0 4.417969-3.578126 8-8 8zm0 0"/><path d="m15.878906 456.714844c-4.421875 0-8-3.574219-8-8v-192.09375c0-4.417969 3.578125-8 8-8 4.425782 0 8 3.582031 8 8v192.09375c0 4.417968-3.574218 8-8 8zm0 0"/><path d="m8 264.613281c-4.425781 0-8-3.578125-8-8v-24c0-4.417969 3.574219-8 8-8s8 3.582031 8 8v24c0 4.421875-3.574219 8-8 8zm0 0"/><path d="m504 264.613281c-4.425781 0-8-3.578125-8-8v-24c0-4.417969 3.574219-8 8-8s8 3.582031 8 8v24c0 4.421875-3.574219 8-8 8zm0 0"/><path d="m504 488.660156h-496c-4.425781 0-8-3.574218-8-8v-32c0-4.425781 3.574219-8 8-8h496c4.425781 0 8 3.574219 8 8v32c0 4.425782-3.574219 8-8 8zm-488-16h480v-16h-480zm0 0"/></svg>